<?xml version="1.0" encoding="UTF-8"?>
<svg width="700pt" height="700pt" version="1.1" viewBox="0 0 700 700" xmlns="http://www.w3.org/2000/svg">
 <path d="m410.73 278.46c-36.461 18.855-64.098 24.48-83.516 22.496-18.023-1.8438-36.027-10.824-53.008-40.238-16.98-29.414-15.762-49.496-8.3438-66.027 9.0234-20.113 31.695-44.449 75.465-69.719 43.766-25.27 76.18-32.734 98.109-30.492 18.023 1.8438 36.027 10.824 53.008 40.238 16.984 29.414 15.762 49.496 8.3438 66.027-2.6641 5.9336-6.5156 12.238-11.746 18.824 8.1016 9.5391 15.555 20.199 22.328 31.93 3.293 5.6992 6.2812 11.414 8.9727 17.133 45.172-46.477 55.953-100.68 20.598-161.91-49-84.871-130.62-86.242-227.61-30.242-86.887 50.164-127.74 112.66-100.09 186.15-72.035 52.363-97.09 116.34-54.176 190.66 49 84.871 130.62 86.242 227.61 30.242 96.996-56 136.62-127.37 87.617-212.24-39.141-67.793-99.094-82.309-171.07-56.867-0.5 1.6914-0.62891 3.2148-0.48047 4.9961 0.25391 3.082 1.5898 9.4883 7.8359 20.305 6.2422 10.816 11.125 15.18 13.668 16.941 2.1602 1.5 4.1367 2.1992 7.2383 2.5156 1.7109 0.17578 3.875 0.22656 6.5195 0.050781 7.7852-0.51953 27.129-0.96094 34.785-0.17969 12.777 1.3047 25.539 6.1992 37.938 19.414zm-169.46 33.113c46.797 57.984 115.73 58.055 196.34 16.031 3.5039 15.047 1.293 27.105-3.4609 37.707-9.0234 20.113-31.695 44.449-75.465 69.719-43.766 25.27-76.18 32.734-98.109 30.492-18.023-1.8438-36.027-10.824-53.008-40.238-16.984-29.414-15.762-49.496-8.3438-66.027 6.3633-14.18 19.508-30.461 42.051-47.684z" fill-rule="evenodd"/>
</svg>
